<svg width="56" height="70" viewBox="0 0 56 70" fill="none" xmlns="http://www.w3.org/2000/svg">
<g clip-path="url(#clip0)">
<path d="M26.0007 38.8569C36.4152 38.8569 44.8578 30.4142 44.8578 19.9997C44.8578 9.58521 36.4152 1.14258 26.0007 1.14258C15.5862 1.14258 7.14355 9.58521 7.14355 19.9997C7.14355 30.4142 15.5862 38.8569 26.0007 38.8569Z" fill="#FBACB0"/>
<path d="M42.8576 70.0005H8.78613L12.7861 44.2862C16.7861 45.3576 21.0718 46.0005 25.5004 46.0005C30.2147 46.0005 34.6433 45.3576 38.7861 44.1433L42.8576 70.0005Z" fill="#CF0B15"/>
<path d="M7.42773 16.3576C8.71345 6.14332 17.9277 -1.07097 28.0706 0.143318C36.2134 1.14332 42.7849 7.35761 44.142 15.5005C44.142 15.5005 37.8563 9.42903 25.4992 9.42903C13.142 9.42903 7.42773 16.3576 7.42773 16.3576Z" fill="#F4333D"/>
<path d="M7.37465 16.24C7.37465 16.24 3.59486 12.2796 9.37152 8.15176C16.3606 3.18724 28.1278 4.4702 37.1851 9.8252C42.8191 13.1721 43.9602 15.5149 43.9602 15.5149C34.8316 12.8932 17.573 10.0483 7.37465 16.24Z" fill="#560509"/>
<path d="M4.85714 59.0004C7.53967 59.0004 9.71429 56.8258 9.71429 54.1433C9.71429 51.4608 7.53967 49.2861 4.85714 49.2861C2.17462 49.2861 0 51.4608 0 54.1433C0 56.8258 2.17462 59.0004 4.85714 59.0004Z" fill="#FBACB0"/>
<path d="M48.1739 46.4948C50.7772 46.8607 53.1842 45.0469 53.55 42.4436C53.9159 39.8403 52.1021 37.4334 49.4988 37.0675C46.8955 36.7016 44.4886 38.5154 44.1227 41.1187C43.7568 43.722 45.5706 46.129 48.1739 46.4948Z" fill="#FBACB0"/>
<path d="M51.6579 37.9191L49.4721 37.2509L50.8504 32.7426C51.0384 32.1278 51.6627 31.7958 52.2775 31.9838C52.8923 32.1718 53.2242 32.7961 53.0363 33.4109L51.6579 37.9191Z" fill="#FBACB0"/>
<path d="M49.3286 38.2288L47.0776 37.8319L47.8963 33.1892C48.0079 32.5561 48.5871 32.1505 49.2202 32.2622C49.8533 32.3738 50.2589 32.953 50.1473 33.5861L49.3286 38.2288Z" fill="#FBACB0"/>
<path d="M46.3406 41.8667L44.1927 42.6484L42.5803 38.2185C42.3605 37.6144 42.6593 36.9735 43.2634 36.7537C43.8675 36.5338 44.5083 36.8326 44.7282 37.4367L46.3406 41.8667Z" fill="#FBACB0"/>
<path d="M53.2935 39.9369L51.2656 38.9499L53.2262 34.6686C53.5306 34.0846 54.175 33.8875 54.7775 34.1229C55.3614 34.4273 55.5585 35.0717 55.3231 35.6741L53.2935 39.9369Z" fill="#FBACB0"/>
<path d="M53.1578 43.8009L51.5695 42.6567L54.2029 38.9238C54.5268 38.4871 55.0972 38.4025 55.5445 38.6666C55.9812 38.9905 56.0657 39.5609 55.8017 40.0081L53.1578 43.8009Z" fill="#FBACB0"/>
<path d="M30.7137 22.3567C30.7137 25.7853 27.928 28.571 24.4994 28.571C21.0709 28.571 18.2852 25.7853 18.2852 22.3567H30.7137Z" fill="#F54B54"/>
</g>
<defs>
<clipPath id="clip0">
<rect width="56" height="70" fill="white"/>
</clipPath>
</defs>
</svg>
