<svg width="14" height="16" viewBox="0 0 14 16" fill="none" xmlns="http://www.w3.org/2000/svg">
<mask id="mask0" mask-type="alpha" maskUnits="userSpaceOnUse" x="0" y="3" width="7" height="13">
<path d="M0.490723 3.64538H6.90438V15.9864H0.490723V3.64538Z" fill="white"/>
</mask>
<g mask="url(#mask0)">
<path fill-rule="evenodd" clip-rule="evenodd" d="M4.09609 15.9864C2.97375 15.3075 2.02405 14.4981 1.30817 13.4314C0.798993 12.6727 0.516032 11.8466 0.492064 10.9464C0.462051 9.81946 0.937244 8.89737 1.76844 8.14014C2.41846 7.548 3.15161 7.0716 3.92006 6.64497C4.37014 6.39508 4.77084 6.08534 5.11562 5.70729C5.57759 5.20079 5.73197 4.60879 5.6104 3.94287C5.60349 3.90503 5.59893 3.86681 5.5934 3.82958C5.77835 3.7647 5.95311 3.6935 6.13439 3.64686C6.17901 3.63541 6.25696 3.69285 6.2992 3.73732C6.81501 4.28061 6.97039 4.93144 6.88021 5.65358C6.78006 6.45613 6.40095 7.13604 5.90234 7.75651C5.54937 8.19571 5.16376 8.60947 4.80772 9.0464C4.30317 9.66564 3.81241 10.2995 3.55939 11.0662C3.17285 12.2375 3.40473 13.2876 4.2561 14.1959C4.33636 14.2815 4.34928 14.3351 4.28687 14.4391C3.97963 14.9516 3.91899 15.444 4.09609 15.9864Z" fill="#F4333D"/>
</g>
<path fill-rule="evenodd" clip-rule="evenodd" d="M4.52803 14.0783C4.11783 13.7018 3.86267 13.256 3.73088 12.7399C3.51679 11.9016 3.73409 11.1348 4.16249 10.4157C4.64766 9.60124 5.27416 8.89194 5.91779 8.19605C6.55386 7.50836 7.00011 6.71821 7.14793 5.79096C7.2829 4.94439 7.11577 4.16979 6.50081 3.5246C6.48537 3.50843 6.4738 3.48869 6.45795 3.46732C6.56446 3.33464 6.6642 3.19794 6.77935 3.07524C6.81068 3.04188 6.89609 3.02819 6.94399 3.04361C8.2462 3.4627 9.07754 4.33092 9.40008 5.6349C9.56378 6.29664 9.4064 6.93586 9.07087 7.53197C8.70506 8.18192 8.20013 8.72314 7.70086 9.27152C7.07367 9.9604 6.69246 10.7524 6.72002 11.7005C6.72147 11.7514 6.71301 11.8061 6.72906 11.8524C6.81762 12.1069 6.70589 12.2357 6.48154 12.3689C5.75768 12.7986 5.11775 13.3305 4.60346 13.9982C4.58643 14.0202 4.56516 14.0391 4.52803 14.0783Z" fill="#F4333D"/>
<path fill-rule="evenodd" clip-rule="evenodd" d="M7.04671 12.0367C6.92928 11.3715 7.03531 10.7674 7.35892 10.2198C7.5649 9.87135 7.82341 9.54496 8.10108 9.24721C8.55835 8.75685 8.97587 8.24471 9.31074 7.66403C9.95019 6.55503 9.84937 5.48609 9.19445 4.42017C8.70282 3.62014 7.99899 3.10365 7.10918 2.81487C6.98039 2.77305 6.8963 2.72736 6.91681 2.57161C6.92576 2.50384 6.89436 2.427 6.86739 2.35967C6.84097 2.2938 6.79687 2.23479 6.75342 2.1606C7.38289 2.10462 7.98721 2.15819 8.56367 2.37135C9.916 2.8714 10.9352 3.74759 11.5382 5.04879C11.8651 5.75415 11.9055 6.51862 11.8635 7.28036C11.8156 8.1497 11.5449 8.9568 11.0538 9.68427C10.7327 10.16 10.3135 10.5293 9.77989 10.7707C8.98599 11.1299 8.19616 11.4977 7.40499 11.8626C7.29168 11.9149 7.18047 11.9716 7.04671 12.0367Z" fill="#F4333D"/>
<mask id="mask1" mask-type="alpha" maskUnits="userSpaceOnUse" x="0" y="2" width="7" height="5">
<path d="M0 2.15282H6.60243V6.68223H0V2.15282Z" fill="white"/>
</mask>
<g mask="url(#mask1)">
<path fill-rule="evenodd" clip-rule="evenodd" d="M5.16883 3.50601C5.21825 3.69138 5.28352 3.87343 5.31395 4.06094C5.48062 5.08797 4.72081 6.04117 3.66657 6.10643C2.99521 6.14798 2.32129 6.149 1.64858 6.16955C1.21086 6.1829 0.817626 6.29157 0.564575 6.68223C0.121604 6.28202 0.0250738 5.2871 0.415893 4.73746C0.444041 4.79399 0.457165 4.84719 0.490182 4.88238C0.895265 5.31414 1.5229 5.42604 2.0536 5.16474C2.25488 5.06561 2.36664 4.8941 2.34039 4.72452C2.31432 4.55562 2.1551 4.41889 1.93458 4.38495C1.51458 4.32034 1.09668 4.33111 0.686973 4.44797C0.573589 4.48034 0.469564 4.54427 0.333419 4.60644C0.225768 4.30077 0.0936986 3.99409 0.0128478 3.67487C-0.0540502 3.41072 0.145435 3.20435 0.491667 3.12204C0.61897 3.09177 0.735152 3.06263 0.641523 2.86597C0.500612 2.90449 0.355834 2.94414 0.200072 2.98677C0.179937 2.72693 0.283824 2.51536 0.497815 2.39514C0.681378 2.29201 0.898823 2.20766 1.1067 2.19387C1.58227 2.16228 2.06123 2.17644 2.53877 2.17977C2.58633 2.18011 2.65223 2.22264 2.67789 2.26443C2.86532 2.56972 3.22181 2.56832 3.41328 2.26157C3.43956 2.21948 3.50494 2.17637 3.55288 2.1757C4.38705 2.16391 5.22136 2.15756 6.05563 2.15282C6.27 2.15158 6.45664 2.21558 6.55334 2.42256C6.64697 2.62291 6.59983 2.80958 6.46993 2.97967C6.19889 3.33466 5.84078 3.51609 5.38537 3.50003C5.32213 3.49782 5.259 3.49327 5.19576 3.4917C5.18634 3.49147 5.1766 3.50166 5.16883 3.50601Z" fill="#F4333D"/>
</g>
<mask id="mask2" mask-type="alpha" maskUnits="userSpaceOnUse" x="6" y="1" width="8" height="9">
<path d="M6.13281 1.02795H13.5315V9.81412H6.13281V1.02795Z" fill="white"/>
</mask>
<g mask="url(#mask2)">
<path fill-rule="evenodd" clip-rule="evenodd" d="M11.3838 9.81308C11.5487 9.42147 11.7493 9.01539 11.8931 8.59073C12.383 7.14404 12.2759 5.73271 11.5253 4.39523C11.2034 3.82175 10.7201 3.36726 10.1959 2.96192C9.21955 2.20693 8.12 1.81526 6.86893 1.86278C6.62994 1.87185 6.39032 1.86407 6.13281 1.82691C6.30197 1.71759 6.46412 1.59547 6.64151 1.5011C7.69343 0.941508 8.79274 0.873568 9.8868 1.32245C11.8667 2.13471 13.0926 3.57859 13.4775 5.67421C13.6561 6.64641 13.3795 7.51842 12.837 8.32862C12.4554 8.89853 11.9669 9.36434 11.4282 9.78523C11.404 9.80418 11.3756 9.81811 11.3838 9.81308Z" fill="#F4333D"/>
</g>
<path fill-rule="evenodd" clip-rule="evenodd" d="M10.3717 1.18919C9.68536 0.895692 8.98136 0.678791 8.22152 0.745237C7.27521 0.827989 6.41665 1.12713 5.71283 1.78418C5.67131 1.82291 5.60559 1.8579 5.55085 1.85834C4.45251 1.86707 3.35416 1.87054 2.25575 1.87444C2.23969 1.87448 2.22356 1.86646 2.18115 1.85522C2.46194 1.49184 2.77301 1.19894 3.24123 1.12621C3.45677 1.09272 3.67463 1.0723 3.89204 1.05223C4.16146 1.02736 4.38917 0.926367 4.57117 0.725467C4.96092 0.295199 5.45055 0.0551652 6.03416 0.0201418C7.01715 -0.0388646 7.98826 0.0207533 8.92669 0.348363C9.46315 0.535607 9.9448 0.815148 10.3717 1.18919Z" fill="#F4333D"/>
</svg>
