<svg width="24" height="24" viewBox="0 0 24 24" fill="none" xmlns="http://www.w3.org/2000/svg">
<path d="M15.6 11.4001C15.9314 11.4001 16.2 11.1314 16.2 10.8001C16.2 10.4687 15.9314 10.2001 15.6 10.2001C15.2686 10.2001 15 10.4687 15 10.8001C15 11.1314 15.2686 11.4001 15.6 11.4001Z" fill="#201E25"/>
<path fill-rule="evenodd" clip-rule="evenodd" d="M7.8 5.40005C7.8 5.06868 8.06863 4.80005 8.4 4.80005H15.6C15.9314 4.80005 16.2 5.06868 16.2 5.40005V6.60005C16.2 6.93142 15.9314 7.20005 15.6 7.20005C15.2686 7.20005 15 6.93142 15 6.60005V6.00005H9V6.60005C9 6.93142 8.73137 7.20005 8.4 7.20005C8.06863 7.20005 7.8 6.93142 7.8 6.60005V5.40005Z" fill="#201E25"/>
<path fill-rule="evenodd" clip-rule="evenodd" d="M7.8 9.00005C7.32261 9.00005 6.86478 9.18969 6.52721 9.52726C6.18965 9.86482 6 10.3227 6 10.8V15H8.4C8.73137 15 9 15.2687 9 15.6C9 15.9314 8.73137 16.2001 8.4 16.2001H5.4C5.06863 16.2001 4.8 15.9314 4.8 15.6V10.8C4.8 10.0044 5.11607 9.24134 5.67868 8.67873C6.24129 8.11612 7.00435 7.80005 7.8 7.80005H16.2C16.9957 7.80005 17.7587 8.11612 18.3213 8.67873C18.8839 9.24134 19.2 10.0044 19.2 10.8V15.6C19.2 15.9314 18.9314 16.2001 18.6 16.2001H15.6C15.2686 16.2001 15 15.9314 15 15.6C15 15.2687 15.2686 15 15.6 15H18V10.8C18 10.3227 17.8104 9.86482 17.4728 9.52726C17.1352 9.18969 16.6774 9.00005 16.2 9.00005H7.8Z" fill="#201E25"/>
<path fill-rule="evenodd" clip-rule="evenodd" d="M7.8 13.2001C7.8 12.8687 8.06863 12.6001 8.4 12.6001H15.6C15.9314 12.6001 16.2 12.8687 16.2 13.2001V18.6001C16.2 18.9315 15.9314 19.2001 15.6 19.2001H8.4C8.06863 19.2001 7.8 18.9315 7.8 18.6001V13.2001ZM9 13.8001V18.0001H15V13.8001H9Z" fill="#201E25"/>
</svg>
