<svg width="24" height="24" viewBox="0 0 24 24" fill="none" xmlns="http://www.w3.org/2000/svg">
<path fill-rule="evenodd" clip-rule="evenodd" d="M13.7693 13.7694C14.0036 13.535 14.3835 13.535 14.6179 13.7694L18.4243 17.5758C18.6586 17.8101 18.6586 18.19 18.4243 18.4243C18.1899 18.6586 17.81 18.6586 17.5757 18.4243L13.7693 14.6179C13.535 14.3836 13.535 14.0037 13.7693 13.7694Z" fill="#201E25"/>
<path fill-rule="evenodd" clip-rule="evenodd" d="M10.8 6.60002C8.4804 6.60002 6.59999 8.48043 6.59999 10.8C6.59999 13.1196 8.4804 15 10.8 15C13.1196 15 15 13.1196 15 10.8C15 8.48043 13.1196 6.60002 10.8 6.60002ZM5.39999 10.8C5.39999 7.81769 7.81766 5.40002 10.8 5.40002C13.7823 5.40002 16.2 7.81769 16.2 10.8C16.2 13.7824 13.7823 16.2 10.8 16.2C7.81766 16.2 5.39999 13.7824 5.39999 10.8Z" fill="#201E25"/>
</svg>
