<svg width="24" height="24" viewBox="0 0 24 24" fill="none" xmlns="http://www.w3.org/2000/svg">
<path fill-rule="evenodd" clip-rule="evenodd" d="M5.39999 5.40005C5.39999 5.06868 5.66862 4.80005 5.99999 4.80005H18C18.3314 4.80005 18.6 5.06868 18.6 5.40005V7.20005C18.6 7.53142 18.3314 7.80005 18 7.80005C17.6686 7.80005 17.4 7.53142 17.4 7.20005V6.00005H6.59999V7.20005C6.59999 7.53142 6.33136 7.80005 5.99999 7.80005C5.66862 7.80005 5.39999 7.53142 5.39999 7.20005V5.40005Z" fill="#201E25"/>
<path fill-rule="evenodd" clip-rule="evenodd" d="M12 4.80005C12.3314 4.80005 12.6 5.06868 12.6 5.40005V18.6C12.6 18.9314 12.3314 19.2 12 19.2C11.6686 19.2 11.4 18.9314 11.4 18.6V5.40005C11.4 5.06868 11.6686 4.80005 12 4.80005Z" fill="#201E25"/>
<path fill-rule="evenodd" clip-rule="evenodd" d="M8.39999 18.6C8.39999 18.2686 8.66862 18 8.99999 18H15C15.3314 18 15.6 18.2686 15.6 18.6C15.6 18.9314 15.3314 19.2 15 19.2H8.99999C8.66862 19.2 8.39999 18.9314 8.39999 18.6Z" fill="#201E25"/>
<path fill-rule="evenodd" clip-rule="evenodd" d="M13.8 12C13.8 11.6687 14.0686 11.4 14.4 11.4H18C18.3314 11.4 18.6 11.6687 18.6 12C18.6 12.3314 18.3314 12.6 18 12.6H14.4C14.0686 12.6 13.8 12.3314 13.8 12Z" fill="#201E25"/>
</svg>
