<svg width="24" height="24" viewBox="0 0 24 24" fill="none" xmlns="http://www.w3.org/2000/svg">
<path fill-rule="evenodd" clip-rule="evenodd" d="M5.40039 5.4C5.40039 5.06863 5.66902 4.8 6.00039 4.8H18.0004C18.3318 4.8 18.6004 5.06863 18.6004 5.4V7.2C18.6004 7.53137 18.3318 7.8 18.0004 7.8C17.669 7.8 17.4004 7.53137 17.4004 7.2V6H6.60039V7.2C6.60039 7.53137 6.33176 7.8 6.00039 7.8C5.66902 7.8 5.40039 7.53137 5.40039 7.2V5.4Z" fill="#201E25"/>
<path fill-rule="evenodd" clip-rule="evenodd" d="M12.0004 4.8C12.3318 4.8 12.6004 5.06863 12.6004 5.4V18.6C12.6004 18.9314 12.3318 19.2 12.0004 19.2C11.669 19.2 11.4004 18.9314 11.4004 18.6V5.4C11.4004 5.06863 11.669 4.8 12.0004 4.8Z" fill="#201E25"/>
<path fill-rule="evenodd" clip-rule="evenodd" d="M8.40039 18.6C8.40039 18.2686 8.66902 18 9.00039 18H15.0004C15.3318 18 15.6004 18.2686 15.6004 18.6C15.6004 18.9314 15.3318 19.2 15.0004 19.2H9.00039C8.66902 19.2 8.40039 18.9314 8.40039 18.6Z" fill="#201E25"/>
</svg>
